# AST/ASF file generated using VICON BodyLanguage
# -----------------------------------------------
:version 1.10
:name VICON
:units
  mass 1.0
  length 0.45
  angle deg
:documentation
   .ast/.asf automatically generated from VICON data using
   VICON BodyBuilder and BodyLanguage model FoxedUp or BRILLIANT.MOD
:root
   order TX TY TZ RX RY RZ
   axis XYZ
   position 0 0 0  
   orientation 0 0 0 
:bonedata
  begin
     id 1 
     name lhipjoint
     direction 0.645893 -0.654526 0.392961 
     length 2.38111 
     axis 0 0 0  XYZ
  end
  begin
     id 2 
     name lfemur
     direction 0.34202 -0.939693 0  
     length 6.6822  
     axis 0 0 20  XYZ
    dof rx ry rz
    limits (-160.0 20.0)
           (-70.0 70.0)
           (-60.0 70.0)
  end
  begin
     id 3 
     name ltibia
     direction 0.34202 -0.939693 0   
     length 6.93904   
     axis 0 0 20   XYZ
    dof rx
    limits (-10.0 170.0)
  end
  begin
     id 4 
     name lfoot
     direction 0.0694967 -0.190941 0.979138   
     length 2.13616   
     axis -90 7.62852e-016 20   XYZ
    dof rx rz
    limits (-45.0 90.0)
           (-70.0 20.0)
  end
  begin
     id 5 
     name ltoes
     direction 1.535e-011 -4.2202e-011 1   
     length 1.07536   
     axis -90 7.62852e-016 20   XYZ
    dof rx
    limits (-90.0 20.0)
  end
  begin
     id 6 
     name rhipjoint
     direction -0.700219 -0.612087 0.367481   
     length 2.54621  
     axis 0 0 0  XYZ 
  end
  begin
     id 7 
     name rfemur
     direction -0.34202 -0.939693 0   
     length 6.55353   
     axis 0 0 -20   XYZ
    dof rx ry rz
    limits (-160.0 20.0)
           (-70.0 70.0)
           (-70.0 60.0)
  end
  begin
     id 8 
     name rtibia
     direction -0.34202 -0.939693 0   
     length 6.8736   
     axis 0 0 -20   XYZ
    dof rx
    limits (-10.0 170.0)
 end
 begin
     id 9 
     name rfoot
     direction -0.0679995 -0.186827 0.980037   
     length 2.1218  
     axis -90 -7.62852e-016 -20   XYZ
    dof rx rz
    limits (-45.0 90.0)
           (-20.0 70.0)
  end
  begin
     id 10 
     name rtoes
     direction -1.53589e-011 -4.21772e-011 1   
     length 1.06864   
     axis -90 -7.62852e-016 -20   XYZ
    dof rx
    limits (-90.0 20.0)
  end
  begin
     id 11 
     name lowerback
     direction -0.0416607 0.996347 -0.0745409   
     length 2.12205   
     axis 0 0 0   XYZ
    dof rx ry rz
    limits (-20.0 45.0)
           (-30.0 30.0)
           (-30.0 30.0)
  end
  begin
     id 12 
     name upperback
     direction -0.000153993 0.999276 -0.0380568   
     length 2.12759   
     axis 0 0 0   XYZ
    dof rx ry rz
    limits (-20.0 45.0)
           (-30.0 30.0)
           (-30.0 30.0)
  end
  begin
     id 13 
     name thorax
     direction 0.0187671 0.999821 -0.00241421   
     length 2.13704   
     axis 0 0 0   XYZ
    dof rx ry rz
    limits (-20.0 45.0)
           (-30.0 30.0)
           (-30.0 30.0)
  end
  begin
     id 14 
     name lowerneck
     direction 0.0268157 0.964865 0.261374   
     length 1.65253   
     axis 0 0 0   XYZ
    dof rx ry rz
    limits (-20.0 45.0)
           (-30.0 30.0)
           (-30.0 30.0)
  end
  begin
     id 15 
     name upperneck
     direction 0.00263774 0.939908 -0.341418   
     length 1.72375   
     axis 0 0 0   XYZ
    dof rx ry rz
    limits (-20.0 45.0)
           (-30.0 30.0)
           (-30.0 30.0)
  end
  begin
     id 16
     name head
     direction -0.00526001 0.989001 -0.147818  
     length 1.74878  
     axis 0 0 0   XYZ
    dof rx ry rz
    limits (-20.0 45.0)
           (-30.0 30.0)
           (-30.0 30.0)
  end
  begin
     id 17 
     name lclavicle
     direction 0.881214 0.461162 -0.103884  
     length 3.25108  
     axis 0 0 0   XYZ
    dof ry rz
    limits (-20.0 10.0)
           (0.0 20.0)
  end
  begin
     id 18 
     name lhumerus
     direction 1 -4.4899e-011 3.38092e-027   
     length 4.87408   
     axis 180 -30 -90   XYZ
    dof rx ry rz
    limits (-60.0 90.0)
           (-90.0 90.0)
           (-90.0 90.0)
  end
  begin
     id 19
     name lradius
     direction 1 -4.48931e-011 9.96288e-027   
     length 2.76729   
     axis 180 -30 -90   XYZ
    dof rx
    limits (-10.0 170.0)
  end
  begin
     id 20
     name lwrist
     direction 1 -4.4896e-011 1.50617e-026   
     length 1.38364   
     axis -9.31234e-015 90 90   XYZ
    dof ry
    limits (-180.0 0.0)
 end
  begin
     id 21 
     name lhand
     direction 1 -4.49038e-011 3.01286e-026   
     length 0.98922   
     axis -1.92217e-014 90 90   XYZ
    dof rx rz
    limits (-90.0 90.0)
           (-45.0 45.0)
  end
  begin
     id 22 
     name lfingers
     direction 1 -4.49051e-011 6.02588e-026   
     length 0.797535   
     axis -3.84436e-014 90 90   XYZ
    dof rx
    limits (0.0 90.0)
  end
  begin
     id 23
     name lthumb
     direction 0.707107 -6.34901e-011 0.707107   
     length 1.14511   
     axis -90 45 2.19363e-014   XYZ
    dof rx rz
    limits (-45.0 45.0)
           (-45.0 45.0)
  end
  begin
     id 24 
     name rclavicle
     direction -0.893894 0.441652 -0.0767889   
     length 3.29361  
     axis 0 0 0   XYZ 
    dof ry rz
    limits (-10.0 20.0)
           (-20.0 0.0)
  end
  begin
     id 25 
     name rhumerus
     direction -1 -4.48945e-011 8.0491e-028  
     length 4.71404   
     axis 180 30 90   XYZ
    dof rx ry rz
    limits (-90.0 60.0)
           (-90.0 90.0)
           (-90.0 90.0)
  end
  begin
     id 26 
     name rradius
     direction -1 -4.48986e-011 9.27795e-027   
     length 2.83468   
     axis 180 30 90   XYZ
    dof rx
    limits (-10.0 170.0)
  end
  begin
     id 27 
     name rwrist
     direction -1 -4.49029e-011 1.5064e-026   
     length 1.41734   
     axis -9.31234e-015 -90 -90   XYZ
    dof ry
    limits (-180.0 0.0)
  end
  begin
     id 28
     name rhand
     direction -1 -4.48857e-011 3.01165e-026   
     length 0.868195   
     axis -1.92217e-014 -90 -90   XYZ
    dof rx rz
    limits (-90.0 90.0)
           (-45.0 45.0)
  end
  begin
     id 29
     name rfingers
     direction -1 -4.49048e-011 6.02585e-026   
     length 0.699961   
     axis -3.84436e-014 -90 -90   XYZ
    dof rx
    limits (0.0 90.0)
  end
  begin
     id 30
     name rthumb
     direction -0.707107 -6.34854e-011 0.707107   
     length 1.00501   
     axis -90 -45 -2.19363e-014   XYZ
    dof rx rz
    limits (-45.0 45.0)
           (-45.0 45.0)
  end
:hierarchy
  begin
    root lhipjoint rhipjoint lowerback
    lhipjoint lfemur
    lfemur ltibia
    ltibia lfoot
    lfoot ltoes
    rhipjoint rfemur
    rfemur rtibia
    rtibia rfoot
    rfoot rtoes
    lowerback upperback
    upperback thorax
    thorax lowerneck lclavicle rclavicle
    lowerneck upperneck
    upperneck head
    lclavicle lhumerus
    lhumerus lradius
    lradius lwrist
    lwrist lhand lthumb
    lhand lfingers
    rclavicle rhumerus
    rhumerus rradius
    rradius rwrist
    rwrist rhand rthumb
    rhand rfingers
  end

#!OML:ASF H:\ManfredObstacles\Project 1\Capture day 2\Session 1\male.ASF
:FULLY-SPECIFIED
:DEGREES
49
root 1.51717 15.8969 22.0915 -178.327 4.84679 181.331
lowerback -4.88555 4.88307 0.223497
upperback 0.940454 6.53571 -0.832662
thorax 3.82095 3.26503 -0.44645
lowerneck -30.0057 0.649353 0.955174
upperneck 42.9088 -4.22706 1.27866
head 24.2332 -2.25493 -1.19818
rclavicle -4.03657e-014 -1.55052e-014
rhumerus -33.8405 19.1065 -98.3572
rradius 76.1706
rwrist 17.7433
rhand -6.47866 0.148778
rfingers 7.12502
rthumb 19.3722 -28.9063
lclavicle -4.03657e-014 -1.55052e-014
lhumerus -55.7265 -3.92007 79.526
lradius 42.87
lwrist -24.9771
lhand -9.83802 8.18032
lfingers 7.12502
lthumb 16.1396 37.5283
rfemur 13.7793 3.27652 26.9703
rtibia 15.3584
rfoot 0.842571 -10.6959
rtoes -34.3719
lfemur -30.9754 -4.51661 -16.6617
ltibia 23.142
lfoot 21.0718 5.68974
ltoes -5.11387
50
root 1.50316 15.8618 21.9117 -178.303 5.00375 181.311
lowerback -5.02936 4.85848 0.211337
upperback 0.875058 6.50317 -0.833686
thorax 3.8322 3.2481 -0.433891
lowerneck -29.9136 0.693457 0.920726
upperneck 42.9305 -4.19755 1.35325
head 24.224 -2.2512 -1.14312
rclavicle -1.03244e-014 -9.14409e-015
rhumerus -33.8869 18.9982 -98.3907
rradius 75.5434
rwrist 18.1843
rhand -6.20672 0.142278
rfingers 7.12502
rthumb 19.6336 -28.8863
lclavicle -1.03244e-014 -9.14409e-015
lhumerus -55.7632 -3.67323 79.3229
lradius 41.9915
lwrist -25.2963
lhand -9.71442 7.85629
lfingers 7.12502
lthumb 16.2586 37.1946
rfemur 13.9996 3.34999 26.8325
rtibia 16.1895
rfoot 0.766964 -10.6216
rtoes -34.7456
lfemur -30.6278 -3.85188 -17.2183
ltibia 23.7847
lfoot 19.7783 5.55521
ltoes -4.09112
51
root 1.4882 15.8264 21.7325 -178.252 5.09423 181.273
lowerback -5.21819 4.80632 0.164108
upperback 0.816733 6.43625 -0.827691
thorax 3.87085 3.21311 -0.393619
lowerneck -29.842 0.733476 0.875885
upperneck 42.9596 -4.17188 1.42895
head 24.2305 -2.25015 -1.08743
rclavicle -3.64024e-015 5.56597e-015
rhumerus -33.9401 18.7965 -98.3656
rradius 74.8424
rwrist 18.7684
rhand -5.93339 0.13851
rfingers 7.12502
rthumb 19.8964 -28.863
lclavicle -3.64024e-015 5.56597e-015
lhumerus -55.7187 -3.37839 79.1378
lradius 41.0774
lwrist -25.7289
lhand -9.64705 7.51412
lfingers 7.12502
lthumb 16.3235 36.8471
rfemur 14.061 3.37555 26.6689
rtibia 17.2456
rfoot 0.678412 -10.5841
rtoes -35.0383
lfemur -30.3209 -3.31468 -17.7744
ltibia 24.5453
lfoot 18.1548 5.88118
ltoes -3.23545
52
root 1.47216 15.7923 21.5543 -178.171 5.13676 181.215
lowerback -5.41312 4.73603 0.0999493
upperback 0.738583 6.34729 -0.835673
thorax 3.89197 3.16726 -0.361109
lowerneck -29.8192 0.763807 0.816341
upperneck 43.0237 -4.17752 1.52108
head 24.2925 -2.26117 -1.03208
rclavicle 4.8168e-014 -5.56597e-015
rhumerus -34.0281 18.4688 -98.3215
rradius 74.0774
rwrist 19.4365
rhand -5.59683 0.158699
rfingers 7.12502
rthumb 20.2199 -28.8089
lclavicle 4.8168e-014 -5.56597e-015
lhumerus -55.6196 -3.05441 78.935
lradius 40.1227
lwrist -26.3275
lhand -9.63052 7.16595
lfingers 7.12502
lthumb 16.3394 36.4976
rfemur 13.9572 3.33091 26.4684
rtibia 18.5238
rfoot 0.631912 -10.546
rtoes -35.2784
lfemur -30.0634 -2.90762 -18.3234
ltibia 25.3694
lfoot 16.4483 6.64974
ltoes -2.50997
53
root 1.45508 15.7612 21.3781 -178.073 5.133 181.128
lowerback -5.61464 4.64468 0.00762085
upperback 0.662382 6.23328 -0.851087
thorax 3.9165 3.10864 -0.322708
lowerneck -29.8182 0.79258 0.747473
upperneck 43.0999 -4.19703 1.63269
head 24.3778 -2.27639 -0.968974
rclavicle -5.14977e-014 -3.18055e-015
rhumerus -34.1107 18.0367 -98.2417
rradius 73.2437
rwrist 20.1767
rhand -5.22841 0.155247
rfingers 7.12502
rthumb 20.5739 -28.7745
lclavicle -5.14977e-014 -3.18055e-015
lhumerus -55.42 -2.66674 78.7215
lradius 39.1158
lwrist -27.072
lhand -9.63424 6.87284
lfingers 7.12502
lthumb 16.3358 36.2048
rfemur 13.6824 3.1943 26.2157
rtibia 20.0252
rfoot 0.673602 -10.4856
rtoes -35.4883
lfemur -29.8493 -2.63064 -18.8684
ltibia 26.2029
lfoot 14.849 7.70882
ltoes -1.87956
54
root 1.43691 15.7345 21.205 -177.967 5.08443 180.998
lowerback -5.78838 4.53672 -0.118374
upperback 0.571338 6.10116 -0.887082
thorax 3.9089 3.04118 -0.292188
lowerneck -29.8042 0.816287 0.65802
upperneck 43.194 -4.24693 1.78285
head 24.4805 -2.30378 -0.890101
rclavicle -5.28705e-014 1.70955e-014
rhumerus -34.226 17.4756 -98.1529
rradius 72.3543
rwrist 20.9668
rhand -4.844 0.106354
rfingers 7.12502
rthumb 20.9433 -28.783
lclavicle -5.28705e-014 1.70955e-014
lhumerus -55.1371 -2.23667 78.4857
lradius 38.0432
lwrist -27.9824
lhand -9.65977 6.64136
lfingers 7.12502
lthumb 16.3113 35.9754
rfemur 13.2326 2.93927 25.8859
rtibia 21.7518
rfoot 0.854361 -10.3796
rtoes -35.6528
lfemur -29.6624 -2.4587 -19.4304
ltibia 27.0056
lfoot 13.4568 8.85773
ltoes -1.15716
55
root 1.41805 15.7121 21.036 -177.874 4.99386 180.831
lowerback -5.92228 4.40361 -0.27836
upperback 0.508495 5.93882 -0.927078
thorax 3.90533 2.95827 -0.252225
lowerneck -29.8139 0.842514 0.570919
upperneck 43.2508 -4.2757 1.93615
head 24.5568 -2.31876 -0.800545
rclavicle -2.34255e-014 1.19271e-015
rhumerus -34.3037 16.8333 -98.0236
rradius 71.4035
rwrist 21.7791
rhand -4.45057 0.0109554
rfingers 7.12502
rthumb 21.3212 -28.8361
lclavicle -2.34255e-014 1.19271e-015
lhumerus -54.7045 -1.69836 78.2252
lradius 36.899
lwrist -29.0194
lhand -9.68537 6.49067
lfingers 7.12502
lthumb 16.2866 35.8267
rfemur 12.6166 2.55824 25.4891
rtibia 23.7097
rfoot 1.2181 -10.216
rtoes -35.7945
lfemur -29.4677 -2.39336 -19.9906
ltibia 27.7439
lfoot 12.2618 9.97564
ltoes -0.205188
56
root 1.39876 15.6935 20.8722 -177.812 4.88463 180.631
lowerback -5.98913 4.25448 -0.466882
upperback 0.481755 5.75737 -0.968433
thorax 3.89947 2.86541 -0.203768
lowerneck -29.864 0.856612 0.450315
upperneck 43.2683 -4.28523 2.09814
head 24.612 -2.32657 -0.690811
rclavicle -7.93958e-014 5.56597e-015
rhumerus -34.3512 16.1038 -97.8506
rradius 70.3996
rwrist 22.6734
rhand -4.06094 -0.132798
rfingers 7.12502
rthumb 21.6954 -28.9371
lclavicle -7.93958e-014 5.56597e-015
lhumerus -54.1174 -1.04217 77.9396
lradius 35.6825
lwrist -30.174
lhand -9.7247 6.3651
lfingers 7.12502
lthumb 16.2487 35.7042
rfemur 11.8482 2.08257 25.0292
rtibia 25.903
rfoot 1.77097 -9.9979
rtoes -35.8673
lfemur -29.2288 -2.44425 -20.5263
ltibia 28.3968
lfoot 11.2148 11.019
ltoes 0.704402
57
root 1.37957 15.6784 20.7146 -177.784 4.75204 180.392
lowerback -5.97842 4.09687 -0.692073
upperback 0.47721 5.56728 -1.01837
thorax 3.87135 2.76793 -0.149841
lowerneck -29.9278 0.867517 0.341099
upperneck 43.2695 -4.29143 2.24872
head 24.6556 -2.33027 -0.587316
rclavicle -2.58482e-014 1.27222e-014
rhumerus -34.3947 15.2765 -97.6394
rradius 69.3197
rwrist 23.6146
rhand -3.72508 -0.2955
rfingers 7.12502
rthumb 22.0179 -29.0622
lclavicle -2.58482e-014 1.27222e-014
lhumerus -53.4087 -0.311958 77.6342
lradius 34.4124
lwrist -31.3676
lhand -9.75068 6.28563
lfingers 7.12502
lthumb 16.2237 35.6268
rfemur 10.9346 1.52472 24.5058
rtibia 28.3288
rfoot 2.49719 -9.74749
rtoes -35.8256
lfemur -28.924 -2.59234 -21.0443
ltibia 28.9462
lfoot 10.2777 11.9355
ltoes 1.42882
58
root 1.36084 15.6663 20.5634 -177.791 4.62008 180.114
lowerback -5.89379 3.94373 -0.95023
upperback 0.487876 5.38543 -1.08328
thorax 3.81705 2.67453 -0.0969253
lowerneck -29.9659 0.85947 0.218331
upperneck 43.2478 -4.31535 2.40402
head 24.6667 -2.34116 -0.481914
rclavicle 5.58212e-014 -1.51076e-014
rhumerus -34.4679 14.3492 -97.4013
rradius 68.1749
rwrist 24.5342
rhand -3.51344 -0.486438
rfingers 7.12502
rthumb 22.2211 -29.2291
lclavicle 5.58212e-014 -1.51076e-014
lhumerus -52.6012 0.494981 77.276
lradius 33.0761
lwrist -32.6754
lhand -9.8086 6.16632
lfingers 7.12502
lthumb 16.168 35.512
rfemur 9.88857 0.912557 23.9175
rtibia 30.9745
rfoot 3.38583 -9.47642
rtoes -35.6348
lfemur -28.5447 -2.76681 -21.559
ltibia 29.379
lfoot 9.38179 12.7141
ltoes 2.01835
59
root 1.34289 15.6579 20.4197 -177.82 4.49548 179.789
lowerback -5.74123 3.80002 -1.24875
upperback 0.515877 5.21886 -1.16808
thorax 3.74199 2.5887 -0.0443377
lowerneck -30.0231 0.848857 0.130932
upperneck 43.2243 -4.34837 2.53245
head 24.6814 -2.35045 -0.401145
rclavicle -1.30011e-013 2.74323e-014
rhumerus -34.5503 13.322 -97.1192
rradius 66.9566
rwrist 25.485
rhand -3.46278 -0.723087
rfingers 7.12502
rthumb 22.2698 -29.4599
lclavicle -1.30011e-013 2.74323e-014
lhumerus -51.697 1.36435 76.8751
lradius 31.7146
lwrist -34.0278
lhand -9.85264 6.05147
lfingers 7.12502
lthumb 16.1255 35.4006
rfemur 8.70991 0.280583 23.2624
rtibia 33.8169
rfoot 4.38237 -9.21478
rtoes -35.1936
lfemur -28.1039 -2.89421 -22.099
ltibia 29.6808
lfoot 8.53998 13.3017
ltoes 2.3886
